<?xml version="1.0" encoding="UTF-8"?>
<svg id="Capa_1" xmlns="http://www.w3.org/2000/svg" version="1.1" viewBox="0 0 1200 1200">
  <!-- Generator: Adobe Illustrator 29.4.0, SVG Export Plug-In . SVG Version: 2.1.0 Build 152)  -->
  <defs>
    <style>
      .st0 {
        fill: #002ccc;
      }
    </style>
  </defs>
  <g>
    <path class="st0" d="M568.7,945.3c-9.2,0-16.7,7.5-16.7,16.7s7.5,16.7,16.7,16.7h50.5c9.2,0,16.7-7.5,16.7-16.7s-7.5-16.7-16.7-16.7h-50.5Z"/>
    <path class="st0" d="M770.8,901.9c-9.2,0-16.7,7.5-16.7,16.7v43.5c0,46.5-37.8,84.3-84.3,84.3h-151.6c-46.6,0-84.3-37.7-84.3-84.3v-353.6c0-40.2,28.3-74.8,67.7-82.7l6.4-1.3,20.5,20.7c5.6,6.4,8.6,9.2,14.9,9.2h101.1c6.3,0,8.8-2.5,15-9.3l20.4-20.7,6.4,1.3c39.4,7.9,67.8,42.4,67.8,82.6v194.5h33.5v-194.5c0-64.3-52.4-117.2-116.7-117.8-1.3,0-152.4,0-153.7,0-64.3.6-116.7,53.4-116.7,117.7v353.7c0,65,52.7,117.8,117.8,117.8h151.6c65,0,117.8-52.7,117.8-117.8v-43.4c0-9.2-7.5-16.7-16.7-16.7h0Z"/>
    <circle class="st0" cx="770.6" cy="785.1" r="38.6"/>
  </g>
  <g>
    <path class="st0" d="M935.6,554.7c-3.2,0-6.4-1.4-8.5-3.8-2.2-2.4-3.2-5.7-2.9-8.9.6-5.8,5.8-10.3,12-10.3h37.2v-38.6h-68.6c-33.5,0-60.7-27.3-60.8-60.8v-73.9c0-33.5,27.3-60.7,60.8-60.8h160.1c33.5,0,60.7,27.3,60.8,60.8v43.8h-23v-43.8c0-20.8-16.9-37.8-37.8-37.8h-160.2c-20.8,0-37.8,17-37.8,37.8v73.9c0,20.8,16.9,37.8,37.8,37.8h160.1c17.6,0,33.1-12.5,36.9-29.6,1.1-5.2,5.8-8.9,11.2-8.9s6.8,1.6,9.1,4.3c2.1,2.7,3,6.1,2.2,9.4-6.1,27.7-31,47.8-59.3,47.8h-68.6v38.6h37.8c3.2,0,6.4,1.4,8.5,3.8,2.2,2.4,3.2,5.7,2.9,8.9-.6,5.8-5.9,10.3-12,10.3h-98Z"/>
    <path class="st0" d="M1113,433.7c-4.4,0-8.2,3-9.1,7.3-3.9,17.9-19.9,31.3-38.9,31.3h-160.1c-22,0-39.9-17.9-39.9-39.9v-73.9c0-22,17.8-39.9,39.9-39.9h160.2c22,0,39.9,17.9,39.9,39.9v41.7h18.8v-41.7c0-32.3-26.4-58.7-58.7-58.7h-160.1c-32.3,0-58.7,26.4-58.7,58.7v73.9c0,32.3,26.4,58.7,58.7,58.7h70.7v42.8h-39.3c-4.9,0-9.4,3.5-9.9,8.4-.6,5.6,3.8,10.4,9.4,10.4h98c4.9,0,9.4-3.5,9.9-8.4.6-5.6-3.8-10.4-9.4-10.4h-39.9v-42.8h70.7c28,0,51.5-19.8,57.3-46.2,1.3-5.8-3.3-11.2-9.2-11.2h0Z"/>
    <path class="st0" d="M1113.2,409.5c-11.5,0-20.9-9.4-20.9-20.9s9.4-20.9,20.9-20.9,20.9,9.4,20.9,20.9-9.4,20.9-20.9,20.9Z"/>
    <circle class="st0" cx="1113.2" cy="388.6" r="18.8"/>
  </g>
  <g>
    <g id="_01_align_center">
      <path class="st0" d="M150,594.7c-2.9,0-5.7-1.2-7.6-3.4-1.9-2.1-2.9-5-2.6-7.9.5-5.1,5.2-9.2,10.7-9.2h50.9v-28.8h-124.3c-6.2,0-11.2-5-11.2-11.2v-171.5c0-19.2,15.7-34.9,34.9-34.9h221.7c19.2,0,34.9,15.6,34.9,34.9v61.3h-20.5v-61.3c0-7.9-6.5-14.4-14.4-14.4H100.8c-7.9,0-14.4,6.5-14.4,14.4v112.9h250.5v-9c0-5.7,4.6-10.2,10.3-10.2s10.2,4.6,10.2,10.2v67.6c0,6.2-5,11.2-11.2,11.2h-124.3v28.8h51.3c2.9,0,5.7,1.2,7.6,3.4,1.9,2.2,2.9,5,2.6,7.9-.5,5.1-5.2,9.2-10.7,9.2h-122.7ZM86.4,517.5c0,4.1,3.3,7.4,7.4,7.4h235.7c4.1,0,7.4-3.3,7.4-7.4v-21.4H86.4v21.4Z"/>
      <path class="st0" d="M339,466.6v11.1H84.3v-115c0-9.1,7.4-16.5,16.5-16.5h221.7c9.1,0,16.5,7.4,16.5,16.5v59.2h16.3v-59.2c0-18.1-14.7-32.8-32.8-32.8H100.8c-18.1,0-32.8,14.7-32.8,32.8v171.5c0,5,4.1,9.1,9.1,9.1h126.4v33h-53c-4.3,0-8.2,3.1-8.6,7.3-.5,4.9,3.3,9,8.1,9h122.7c4.3,0,8.2-3.1,8.6-7.3.5-4.9-3.3-9-8.1-9h-53.4v-33h126.4c5,0,9.1-4.1,9.1-9.1v-67.6c0-4.5-3.7-8.2-8.2-8.2h0c-4.5,0-8.2,3.7-8.2,8.2ZM339,517.5c0,5.2-4.3,9.5-9.5,9.5H93.8c-5.2,0-9.5-4.3-9.5-9.5v-23.5h254.7v23.5Z"/>
    </g>
    <path class="st0" d="M347.1,428.3c-10.2,0-18.4-8.3-18.4-18.4s8.3-18.4,18.4-18.4,18.4,8.3,18.4,18.4-8.3,18.4-18.4,18.4Z"/>
    <circle class="st0" cx="347.1" cy="409.9" r="16.3"/>
  </g>
  <g>
    <path class="st0" d="M618.6,370.7c-2.9,0-5.7-1.2-7.6-3.4-1.9-2.2-2.9-5-2.6-7.9.5-5.1,5.2-9.2,10.7-9.2h38.5v-76c0-12.4,10.1-22.6,22.6-22.6h2.1v-14.4c0-38.8-24.9-72.7-62-84.3-4.2-1.3-7-5.2-7-9.7s4.6-10.2,10.3-10.2,2.2.2,3.2.5c45.5,14.4,76,56.1,76,103.7v18.9c22.3,10,36.8,31.5,36.8,55,0,15.8-6.1,30.8-17.3,42-11.2,11.3-26.1,17.5-42,17.6h-61.6ZM680.2,350.2c21.5,0,39-17.5,39-39s-17.5-39-39-39h-2.1v78.1h2.1Z"/>
    <path class="st0" d="M701.6,257.9l-.9-.4v-20.3c0-47.6-31.4-88.1-74.5-101.7-5.3-1.7-10.8,2.2-10.8,7.8h0c0,3.5,2.2,6.7,5.6,7.7,36.7,11.5,63.4,45.8,63.4,86.3v16.5h-4.2c-11.3,0-20.5,9.2-20.5,20.5v78.1h-40.6c-4.3,0-8.2,3.1-8.6,7.3-.5,4.9,3.3,9,8.1,9h61.6c15.3,0,29.7-6.1,40.6-16.9,10.8-10.8,16.7-25.2,16.7-40.5,0-23.2-14.7-43.9-35.9-53.2ZM680.2,352.3h-4.2v-82.2h4.2c22.7,0,41.1,18.4,41.1,41.1s-18.4,41.1-41.1,41.1Z"/>
    <path class="st0" d="M507.7,370.7c-23.5,0-44.8-14-54.3-35.5-13.2-30,.5-65.2,30.5-78.5l1.2-.5v-18.9c0-57.4,44.9-105.1,102.1-108.6h2.2c0-.1,0,20.4,0,20.4h-1.9c-45.9,3.4-81.9,42.1-81.9,88.2v14.4h2.1c12.4,0,22.6,10.1,22.6,22.6v73.9c0,12.4-10.1,22.6-22.6,22.6h0ZM507.7,272.2c-21.5,0-39,17.5-39,39s17.5,39,39,39h2.1v-78.1h-2.1Z"/>
    <path class="st0" d="M587.4,147.1v-16.4c-55.8,3.4-100.2,49.8-100.2,106.5v20.3l-2.5,1.1c-29,12.8-42.2,46.7-29.4,75.7,9.1,20.8,29.7,34.2,52.4,34.3,11.3,0,20.5-9.2,20.5-20.5v-73.9c0-11.3-9.2-20.5-20.5-20.5h-4.2v-16.5c0-47.6,37.1-86.8,83.9-90.1ZM507.7,270.1h4.2v82.2h-4.2c-22.7,0-41.1-18.4-41.1-41.1s18.4-41.1,41.1-41.1Z"/>
    <path class="st0" d="M577.7,157c-10.2,0-18.4-8.3-18.4-18.4s8.3-18.4,18.4-18.4,18.4,8.3,18.4,18.4-8.3,18.4-18.4,18.4Z"/>
    <circle class="st0" cx="577.7" cy="138.6" r="16.3"/>
  </g>
</svg>