<?xml version="1.0" encoding="UTF-8"?>
<svg id="Capa_1" xmlns="http://www.w3.org/2000/svg" version="1.1" viewBox="0 0 1200 1200">
  <!-- Generator: Adobe Illustrator 29.4.0, SVG Export Plug-In . SVG Version: 2.1.0 Build 152)  -->
  <defs>
    <style>
      .st0 {
        fill: #002ccc;
      }
    </style>
  </defs>
  <path class="st0" d="M867.2,973.4c0-18.9-15.4-34.3-34.3-34.3H257.7c-13.1,0-23.7-10.7-23.7-23.7v-81.9c0-13.1,10.6-23.7,23.7-23.7h656.8c13.1,0,23.7,10.6,23.7,23.7v70.2c-13,10.8-21.4,26.9-21.4,45.1,0,32.5,26.4,58.9,58.9,58.9s58.9-26.4,58.9-58.9-11.2-39.4-27.8-49.8v-65.4c0-50.9-41.4-92.3-92.3-92.3h-83.7v-295.6c0-18.8-15.3-34.1-34-34.1s-34.1,15.3-34.1,34.1v295.6h-341.2v-295.6c0-18.8-15.3-34.1-34-34.1s-34,15.3-34,34.1v295.6h-95.8c-50.9,0-92.3,41.4-92.3,92.3v81.9c0,50.9,41.4,92.3,92.3,92.3h575.2c18.9,0,34.3-15.4,34.3-34.3Z"/>
  <path class="st0" d="M263.4,874.5c0,17.4,14.2,31.6,31.6,31.6s31.6-14.2,31.6-31.6-14.2-31.6-31.6-31.6-31.6,14.2-31.6,31.6Z"/>
  <path class="st0" d="M382.9,874.5c0,17.4,14.2,31.6,31.6,31.6s31.6-14.2,31.6-31.6-14.2-31.6-31.6-31.6-31.6,14.2-31.6,31.6Z"/>
  <path class="st0" d="M501.6,874.5c0,17.4,14.2,31.6,31.6,31.6s31.6-14.2,31.6-31.6-14.2-31.6-31.6-31.6-31.6,14.2-31.6,31.6Z"/>
  <path class="st0" d="M796.4,310.8c-35.6,0-69.3,15.6-92.4,42.8-12.2,14.5-10.4,36.1,4,48.3,6.2,5.3,14,8.2,22.2,8.2s19.7-4.4,26.2-12.1c10-11.8,24.6-18.6,40-18.6s30.4,6.9,40.4,19c6.5,7.9,16.2,12.4,26.4,12.4s15.6-2.7,21.9-7.9c7.1-5.8,11.4-14.1,12.3-23.2.8-9.1-1.9-18-7.7-25.1-23.1-27.9-57.1-43.9-93.2-43.9Z"/>
  <path class="st0" d="M675.4,314.2c9.8,0,18.7-4,25.3-11.1,24.6-26.8,59.5-42.1,95.8-42.1s71.7,15.6,96.2,42.7c6.5,7.2,15.8,11.3,25.4,11.3s16.7-3.2,23-8.9c6.8-6.1,10.8-14.6,11.2-23.7.5-9.2-2.7-17.9-8.8-24.7-37.6-41.5-91.2-65.2-147.1-65.2s-108.8,23.5-146.3,64.4c-12.8,14-11.8,35.7,2.1,48.5,6.4,5.8,14.6,9,23.2,9Z"/>
</svg>