<?xml version="1.0" encoding="UTF-8"?>
<svg id="Capa_1" xmlns="http://www.w3.org/2000/svg" version="1.1" viewBox="0 0 1200 1200">
  <!-- Generator: Adobe Illustrator 29.4.0, SVG Export Plug-In . SVG Version: 2.1.0 Build 152)  -->
  <defs>
    <style>
      .st0 {
        fill: #002ccc;
      }
    </style>
  </defs>
  <g>
    <g>
      <path class="st0" d="M957.2,802.5c-10.7,0-20.6,6.5-24.4,16.5-53.1,141.9-190.7,243.7-349.8,243.7h-5.7c-202.6-3.1-367.4-170.5-367.4-373.2s34.6-182.3,97.4-251.2c2.2-2.5,3.1-5.8,2.3-8.9-3.4-12.6-7.2-25.2-11.4-37.2-1.7-4.7-5.9-6.4-9.1-6.4s-4.3.5-6.8,3c-92.8,92.8-137.4,221-121.3,354.1,9.2,75.8,39.3,148.1,86.5,208,92.9,118,235.3,177.6,384.4,161.1,78.8-8.7,154.1-40,216-89.7,62.3-49.9,107.7-113.8,134.1-185.1,6.3-16.9-6.8-34.9-24.8-34.9h0Z"/>
      <path class="st0" d="M956.2,695.5h52c0-2,.1-3.9.1-5.9,0-113.6-44.2-220.4-124.5-300.7-3.5-3.5-7-6.9-10.7-10.3-2.3-2.2-4.9-2.6-6.6-2.6-3.1,0-7.3,1.6-9,6.2-4.4,11.6-8.4,23.7-11.9,36-.9,3.2,0,6.7,2.5,9.1,71.2,72,109.6,167.2,108,268.3Z"/>
    </g>
    <path class="st0" d="M432,598.7c2-39.6,2.4-162.3-55-288.7l46.9-22.7c64,140.2,62.4,275,60,317l-51.9-5.6Z"/>
    <path class="st0" d="M668.2,604.4c-2.4-42-4.1-176.8,60-317l46.9,22.7c-56.9,125.5-56.8,249.1-54.9,288.7l-52,5.6Z"/>
    <rect class="st0" x="549.7" y="220.8" width="52.1" height="380.7"/>
    <path class="st0" d="M376.3,316.6c-41,0-74.3-33.3-74.3-74.3s33.3-74.3,74.3-74.3,74.3,33.3,74.3,74.3-33.3,74.3-74.3,74.3ZM376.3,202c-22.2,0-40.3,18.1-40.3,40.3s18.1,40.3,40.3,40.3,40.3-18.1,40.3-40.3-18.1-40.3-40.3-40.3Z"/>
    <path class="st0" d="M775.9,316.6c-41,0-74.3-33.3-74.3-74.3s33.3-74.3,74.3-74.3,74.3,33.3,74.3,74.3-33.3,74.3-74.3,74.3ZM775.9,202c-22.2,0-40.3,18.1-40.3,40.3s18.1,40.3,40.3,40.3,40.3-18.1,40.3-40.3-18.1-40.3-40.3-40.3Z"/>
    <path class="st0" d="M575.8,233.7c-41,0-74.3-33.3-74.3-74.3s33.3-74.3,74.3-74.3,74.3,33.3,74.3,74.3-33.3,74.3-74.3,74.3ZM575.8,119.1c-22.2,0-40.3,18.1-40.3,40.3s18.1,40.3,40.3,40.3,40.3-18.1,40.3-40.3-18.1-40.3-40.3-40.3Z"/>
    <path class="st0" d="M583.1,1114.9c-77.9,0-154.1-21.2-220.3-61.4l-12.5-7.6v-346.1c0-61.3,49.9-111.1,111.1-111.1h235.1c61.3,0,111.1,49.9,111.1,111.1v351.4l-13.1,7.5c-64.1,36.8-137.2,56.2-211.4,56.2ZM461.4,640.7c-32.5,0-59,26.5-59,59v316.5l7,3.7c53.2,28,113.3,42.8,173.7,42.8s114.2-13.3,165.1-38.4l7.3-3.6v-321c0-32.6-26.5-59-59-59h-235.1Z"/>
  </g>
  <circle class="st0" cx="982.8" cy="663.8" r="59.4"/>
</svg>