<?xml version="1.0" encoding="UTF-8"?>
<svg id="Capa_1" xmlns="http://www.w3.org/2000/svg" version="1.1" viewBox="0 0 1200 1200">
  <!-- Generator: Adobe Illustrator 29.4.0, SVG Export Plug-In . SVG Version: 2.1.0 Build 152)  -->
  <defs>
    <style>
      .st0 {
        fill: #002ccc;
      }
    </style>
  </defs>
  <g>
    <path class="st0" d="M676,945.7h-224c-110.9-4-213.9,21.3-306.8-53.7C2.6,776.8,47.9,544.9,221.4,490c14.6-4.6,46.8-7.1,55.6-17.4,9.5-11.2,7.2-41.1,9.6-57.4,40-270.9,443.8-256,464,18.3,1.8,24.9-10.7,76.8,31.3,71,14.5-2,39.9-16.1,59.3-20.2,182.5-38.4,310.9,128.5,277.5,279.3h56.6c38.7-210.4-159.2-389.9-368.6-329-12.7-199.7-218.1-329.7-404.6-249.4-88.5,38.1-148.5,115.6-168.8,209.2-1.8,8.1-2.4,31.6-6.5,35.5C50.3,473.9-45.7,663.8,29.9,832.2c34.8,77.5,108.2,138.3,190.5,159.5,74.2,19.1,155.4,6.2,231.5,10h280c82.8-4.2,172,11.5,251.5-15.7,39.5-13.5,75.8-36.2,106.2-65.2,18-17.2,5.6-47.7-19.4-47.7h0c-7.1,0-13.9,2.7-19,7.6-4,3.8-8.1,7.6-12.5,11.3-89.7,75-198.9,49.6-306.8,53.7h-56Z"/>
    <path class="st0" d="M810.8,12.8c27-4.9,84.8,7,112.1,15.2,141.7,42.4,251.4,179.2,257.4,328.4.7,18.6.6,43.6-22.9,47.4-40.7,6.6-32.6-47-36.2-72.4-17.9-126.4-119.2-233.2-244.3-257.4-22-4.3-43.3-3.1-64-6-31.9-4.4-32.3-49.7-2-55.2Z"/>
    <path class="st0" d="M810.8,124.8c20.1-3.7,57.5,4.1,77.6,10,91.3,26.8,163.2,108.8,177.1,203.3,3.1,21.5,9.6,60.9-20.1,65.7-38.9,6.3-32.2-41-36.6-65-14.4-77.4-79.6-142.1-157.1-155.6-13.8-2.4-39.3-1.1-49.4-6.7-22.7-12.6-16.3-47.3,8.5-51.8Z"/>
    <path class="st0" d="M810.8,236.8c52.5-9.7,115.9,38.6,134.8,85.8,9.9,24.7,23.6,88.7-22.7,81.1-27-4.4-21.2-38.7-29.3-59.4-8.9-22.4-29.2-41-52.3-48.1-17.3-5.3-37.9-.4-48.5-16.8-10.8-16.7-.9-39.1,18.1-42.6Z"/>
    <circle class="st0" cx="1148.3" cy="735.9" r="51.7"/>
  </g>
  <path class="st0" d="M387.9,908c-14.5,0-28.1-5.6-38.3-15.8l-116.3-115c-4.4-4.4-6.9-10.2-6.9-16.5,0-6.3,2.4-12.2,6.8-16.6,4.4-4.5,10.3-7,16.6-7s12.1,2.4,16.5,6.8l98.2,97v-330.3c0-12.9,10.5-23.4,23.4-23.4s23.4,10.5,23.4,23.4v330.4l98.2-97.1c4.4-4.4,10.3-6.8,16.5-6.8s12.2,2.5,16.6,6.9c4.4,4.5,6.8,10.3,6.7,16.6,0,6.3-2.5,12.1-6.9,16.5l-116.4,115.1c-10.2,10.2-23.7,15.7-38.1,15.7ZM654.4,907.3c-12.9,0-23.4-10.5-23.4-23.4v-329l-98.2,97c-4.4,4.4-10.3,6.8-16.5,6.8s-12.2-2.5-16.6-6.9c-4.4-4.5-6.8-10.4-6.8-16.6,0-6.3,2.5-12.1,6.9-16.5l116.4-115.1c10.2-10.2,23.7-15.7,38.1-15.7s28.1,5.6,38.3,15.8l117.2,115.8c8.4,9,8.3,23.2-.7,32.3-4.4,4.5-10.3,6.9-16.7,6.9s-12.1-2.4-16.5-6.8l-98.2-97.1v329c0,12.9-10.5,23.4-23.4,23.4Z"/>
</svg>