<?xml version="1.0" encoding="UTF-8"?>
<svg id="Capa_1" xmlns="http://www.w3.org/2000/svg" version="1.1" viewBox="0 0 1200 1200">
  <!-- Generator: Adobe Illustrator 29.4.0, SVG Export Plug-In . SVG Version: 2.1.0 Build 152)  -->
  <defs>
    <style>
      .st0 {
        fill: #002ccc;
      }
    </style>
  </defs>
  <path class="st0" d="M361.2,1039.6c-23.3,0-45.1-9-61.4-25.3l-186.3-184.2c-7.1-7-11.1-16.4-11.1-26.5,0-10.1,3.8-19.5,10.8-26.6,7.1-7.2,16.6-11.1,26.7-11.1s19.4,3.9,26.4,10.9l157.3,155.5V198c0-20.7,16.8-37.5,37.5-37.5s37.5,16.8,37.5,37.5v734.2l157.3-155.5c7.1-7,16.5-10.8,26.5-10.8s19.5,3.9,26.6,11.1c7,7.1,10.9,16.6,10.8,26.6,0,10-4,19.4-11.1,26.5l-186.5,184.4c-16.3,16.3-38,25.2-61,25.2ZM788.3,1038.5c-20.7,0-37.5-16.8-37.5-37.6V269l-157.3,155.5c-7.1,7-16.5,10.9-26.5,10.9s-19.6-3.9-26.6-11.1c-7.1-7.2-10.9-16.6-10.9-26.6,0-10,4-19.4,11.1-26.5l186.5-184.4c16.3-16.3,38-25.2,61.1-25.2s45,9,61.4,25.4l187.7,185.6c13.5,14.4,13.2,37.2-1.1,51.7-7.1,7.2-16.6,11.1-26.7,11.1s-19.3-3.9-26.4-10.9l-157.3-155.5v732.1c0,20.7-16.8,37.6-37.5,37.6Z"/>
  <circle class="st0" cx="1022.6" cy="406.4" r="75.1"/>
</svg>