<?xml version="1.0" encoding="UTF-8"?>
<svg id="Capa_1" xmlns="http://www.w3.org/2000/svg" version="1.1" viewBox="0 0 1200 1200">
  <!-- Generator: Adobe Illustrator 29.4.0, SVG Export Plug-In . SVG Version: 2.1.0 Build 152)  -->
  <defs>
    <style>
      .st0 {
        fill: #002ccc;
      }
    </style>
  </defs>
  <path class="st0" d="M374.7,845.8c-42.4-.1-84.9-.3-127.3.1-8.4,0-13-2.3-16.8-10.1-17.3-36.3-30-74.1-36.3-113.8-3.5-22.2-4.8-44.9-6.9-66.3,3.4-1.7,4.1-2.4,4.9-2.4,15.8-.3,31.7-.3,47.5-.6,18.7-.3,30.9-11.3,30.8-27.3,0-16-12.5-27.1-30.9-27.3-14.9-.2-29.8,0-47.3,0,17.2-111,67.4-200.2,153-268.5,65.9-52.7,141.4-81.6,227.1-88,0,18.6-.4,35,.1,51.2.7,19.6,13.6,31.3,31.3,29.2,14.2-1.8,23.3-13.1,23.6-30.5.3-16.2,0-32.4,0-50.2,107.3,9.3,196.9,51,269.9,127.4,56.6,59.3,91.4,129.3,106.6,210.5h55.6c-45-274.5-329.5-451.2-595.7-368.5-201.7,62.7-342.5,256-329.2,474.3,4.3,71.1,24.9,137.6,59.7,199.7,6,10.7,14.8,16.2,27.2,16.1,21.4-.2,42.9,0,64.3,0,30.4,0,60.9.3,91.3-.2,20-.3,32-16.3,27.1-34.7-3.3-12.4-13.9-19.7-29.6-19.7h0Z"/>
  <path class="st0" d="M1003.5,799c-10.8,0-20.8,6.4-25,16.4-2.2,5.3-4.4,10.6-6.8,15.8-5,10.8-10.7,14.9-22.9,14.8-158.2-.5-316.4-.3-474.6-.3s-9.5-.3-14.1.3c-14.7,1.8-25.2,14.1-24.5,28.3.6,13.9,11.2,24.6,25.6,25.8,3,.3,6,.2,9,.2,167.6,0,335.3-.2,502.9.3,17.3,0,27.8-6.6,35.7-21.7,7.4-14,14.1-28.2,20.1-42.5,7.5-17.8-6-37.5-25.3-37.5Z"/>
  <path class="st0" d="M601.4,957.3h480.9c5.2,0,10.3-.3,15.4.4,11.9,1.5,20.5,10.6,21.6,22.1,1.3,13.1-4.5,23.6-16.2,27.5-5.6,1.9-11.7,2.5-17.6,2.5-323.6.1-647.2.1-970.8,0-22.2,0-33.7-9.2-33.9-26.4-.2-14.2,9-24.7,23.1-26,5.1-.5,10.3-.3,15.4-.3h482.2Z"/>
  <path class="st0" d="M546.7,625.6c0-28.2,20.9-51.7,48.9-53,11.4-.5,18.9-4.9,26-13.3,38.8-45.9,78-91.5,117.4-136.9,5.1-5.9,11.8-11.9,19-14.3,10.8-3.6,21.7-.4,28.1,10,6.7,11,6,22.3-2.5,32.3-24.1,28.6-48.3,56.9-72.6,85.3-17.3,20.3-34.5,40.5-52.1,60.5-5.7,6.5-7.9,12.5-6.4,21.9,5.1,30.9-18.4,58.5-50.2,60.9-29.2,2.2-55.6-23.2-55.7-53.6h0Z"/>
  <path class="st0" d="M1032.1,681.4c35,0,63.4-28.5,63.4-63.6s-28.4-63.6-63.4-63.6-63.4,28.5-63.4,63.6,28.4,63.6,63.4,63.6Z"/>
</svg>