<?xml version="1.0" encoding="UTF-8"?>
<svg id="Capa_1" xmlns="http://www.w3.org/2000/svg" version="1.1" xmlns:xlink="http://www.w3.org/1999/xlink" viewBox="0 0 900.6 283.3">
  <!-- Generator: Adobe Illustrator 29.4.0, SVG Export Plug-In . SVG Version: 2.1.0 Build 152)  -->
  <defs>
    <style>
      .st0 {
        fill: url(#Degradado_sin_nombre_28);
      }

      .st1 {
        fill: #fff;
      }
    </style>
    <linearGradient id="Degradado_sin_nombre_28" data-name="Degradado sin nombre 28" x1="790.9" y1="116.5" x2="829.4" y2="260.2" gradientTransform="translate(0 286) scale(1 -1)" gradientUnits="userSpaceOnUse">
      <stop offset="0" stop-color="#ff4c00"/>
      <stop offset="1" stop-color="#ff0"/>
    </linearGradient>
  </defs>
  <g>
    <path class="st1" d="M126.2,215.5h4.9l-9.5,47.3h-4.9l9.5-47.3Z"/>
    <path class="st1" d="M170.6,238.6c0,1.3-.1,2.6-.4,4.1l-4.1,20.2h-4.8l4.1-20.3c.2-1.1.3-2.2.3-3.2,0-5.1-3-8-9.2-8s-12.8,4.1-14.5,12.4l-3.8,19.1h-4.8l7-35.6h4.6l-1.1,5.7c3.4-4.1,8.3-5.9,13.9-5.9,8,0,12.7,4.3,12.7,11.6Z"/>
    <path class="st1" d="M184.2,252.1c-.1.8-.3,1.6-.3,2.2,0,3,1.7,4.7,5.1,4.7s3.9-.6,5.5-1.8l1.1,3.6c-2.2,1.7-5.2,2.3-7.9,2.3-5.3,0-8.6-3-8.6-8.1s0-1.8.3-2.8l4.1-21h-6.3l.7-4.1h6.4l1.6-7.8h4.8l-1.6,7.8h10.8l-.8,4.1h-10.8l-4.1,20.8Z"/>
    <path class="st1" d="M204.4,246.4c0,.5,0,.9,0,1.4,0,7.1,4.1,11.1,12.2,11.1s9-1.7,11.6-4.5l2.2,3.4c-3.3,3.3-8.6,5.3-14.2,5.3-10.3,0-16.6-5.8-16.6-15.1s8.3-21,19.7-21,15.5,5.6,15.5,15.1-.2,3-.5,4.3h-29.9ZM204.9,242.8h25.4c0-.5,0-.9,0-1.3,0-6.8-4.5-10.5-11.2-10.5-7.2,0-12.5,4.7-14.3,11.8Z"/>
    <path class="st1" d="M263.1,227l-.9,4.7c-.5,0-.8,0-1.4,0-7.6,0-12.6,4.3-14.4,13.2l-3.6,18h-4.8l7-35.6h4.6l-1.2,6.5c3.2-4.7,7.8-6.8,14.6-6.8Z"/>
    <path class="st1" d="M299.1,238.6c0,1.3-.1,2.6-.4,4.1l-4.1,20.2h-4.8l4.1-20.3c.2-1.1.3-2.2.3-3.2,0-5.1-3-8-9.2-8s-12.8,4.1-14.5,12.4l-3.8,19.1h-4.8l7-35.6h4.6l-1.1,5.7c3.5-4.1,8.3-5.9,13.9-5.9,8.1,0,12.7,4.3,12.7,11.6Z"/>
    <path class="st1" d="M309.6,246.4c0,.5,0,.9,0,1.4,0,7.1,4.1,11.1,12.2,11.1s9-1.7,11.6-4.5l2.2,3.4c-3.3,3.3-8.6,5.3-14.2,5.3-10.3,0-16.6-5.8-16.6-15.1s8.3-21,19.7-21,15.5,5.6,15.5,15.1-.2,3-.5,4.3h-29.9ZM310.1,242.8h25.4c0-.5,0-.9,0-1.3,0-6.8-4.5-10.5-11.2-10.5-7.2,0-12.5,4.7-14.3,11.8Z"/>
    <path class="st1" d="M351,252.1c-.1.8-.3,1.6-.3,2.2,0,3,1.7,4.7,5.1,4.7s3.9-.6,5.5-1.8l1.1,3.6c-2.2,1.7-5.2,2.3-7.9,2.3-5.3,0-8.6-3-8.6-8.1s0-1.8.3-2.8l4.1-21h-6.3l.7-4.1h6.4l1.6-7.8h4.8l-1.5,7.8h10.8l-.8,4.1h-10.8l-4.1,20.8Z"/>
    <path class="st1" d="M425.5,212.7l-10,50.2h-4.6l1.1-5.6c-3.4,3.7-8.1,6-13.9,6-9.1,0-15.5-5.7-15.5-15.1s8.5-21.1,20.1-21.1,11.4,2.8,13.5,7.7l4.4-22h4.8ZM414.7,242.3c0-7-4.3-11.1-11.7-11.1s-15.4,7-15.4,16.7,4.3,11,11.7,11c8.9,0,15.4-7,15.4-16.6Z"/>
    <path class="st1" d="M430.7,246.4c0,.5,0,.9,0,1.4,0,7.1,4.1,11.1,12.2,11.1s9-1.7,11.6-4.5l2.2,3.4c-3.3,3.3-8.6,5.3-14.2,5.3-10.3,0-16.6-5.8-16.6-15.1s8.3-21,19.7-21,15.5,5.6,15.5,15.1-.2,3-.5,4.3h-29.9ZM431.2,242.8h25.4c0-.5,0-.9,0-1.3,0-6.8-4.5-10.5-11.2-10.5-7.2,0-12.5,4.7-14.3,11.8Z"/>
    <path class="st1" d="M479,248.1c0-12.1,8.6-21.1,20.5-21.1s16.2,5.8,16.2,15-8.6,21.2-20.5,21.2-16.2-5.9-16.2-15.1ZM510.9,242.3c0-7-4.3-11.1-11.7-11.1s-15.4,7-15.4,16.7,4.3,11,11.7,11c8.9,0,15.4-7,15.4-16.6Z"/>
    <path class="st1" d="M526.8,252.1c-.1.8-.3,1.6-.3,2.2,0,3,1.7,4.7,5.1,4.7s3.8-.6,5.5-1.8l1.2,3.6c-2.2,1.7-5.2,2.3-7.9,2.3-5.3,0-8.7-3-8.7-8.1s0-1.8.3-2.8l4.1-21h-6.3l.7-4.1h6.4l1.6-7.8h4.8l-1.5,7.8h10.8l-.8,4.1h-10.8l-4.1,20.8Z"/>
    <path class="st1" d="M568.8,227l-.9,4.7c-.5,0-.8,0-1.3,0-7.6,0-12.6,4.3-14.4,13.2l-3.6,18h-4.8l7-35.6h4.6l-1.2,6.5c3.2-4.7,7.8-6.8,14.6-6.8Z"/>
    <path class="st1" d="M567,248.1c0-12.1,8.6-21.1,20.5-21.1s16.2,5.8,16.2,15-8.6,21.2-20.5,21.2-16.2-5.9-16.2-15.1ZM598.9,242.3c0-7-4.3-11.1-11.7-11.1s-15.4,7-15.4,16.7,4.3,11,11.7,11c8.9,0,15.4-7,15.4-16.6Z"/>
    <path class="st1" d="M659.2,238.6c0,1.3-.1,2.6-.4,4.1l-4.1,20.2h-4.8l4.1-20.3c.2-1.1.3-2.2.3-3.2,0-5.1-3-8-9.2-8s-12.8,4.1-14.5,12.4l-3.8,19.1h-4.8l7-35.6h4.6l-1.2,5.7c3.5-4.1,8.3-5.9,13.9-5.9,8.1,0,12.7,4.3,12.7,11.6Z"/>
    <path class="st1" d="M672.1,227.3h4.8l-7,35.6h-4.8l7-35.6ZM673.3,216.3c0-2,1.5-3.6,3.7-3.6s3.3,1.4,3.3,3-1.6,3.8-3.8,3.8-3.2-1.5-3.2-3.2Z"/>
    <path class="st1" d="M717.6,227.3l-22.8,35.6h-4.9l-8.8-35.6h4.8l7.4,30.4,19.4-30.4h5Z"/>
    <path class="st1" d="M718,246.4c0,.5,0,.9,0,1.4,0,7.1,4.1,11.1,12.2,11.1s9-1.7,11.6-4.5l2.2,3.4c-3.3,3.3-8.7,5.3-14.2,5.3-10.3,0-16.6-5.8-16.6-15.1s8.3-21,19.7-21,15.5,5.6,15.5,15.1-.2,3-.5,4.3h-29.9ZM718.5,242.8h25.3c0-.5,0-.9,0-1.3,0-6.8-4.5-10.5-11.2-10.5-7.2,0-12.5,4.7-14.3,11.8Z"/>
    <path class="st1" d="M761.7,212.7h4.8l-10,50.2h-4.8l10-50.2Z"/>
  </g>
  <g>
    <g>
      <path class="st1" d="M133,28l-1,15.2c-.1,1.9-1.7,3.4-3.6,3.4h-52.2c-7.4,0-9.8,2.4-9.8,9.7v28.6h51.3c3.7,0,6.8,3,6.8,6.7v8.1c0,3.7-3,6.8-6.8,6.8h-51.3v57.5c0,3.7-3,6.7-6.7,6.7h-11.6c-3.7,0-6.7-3-6.7-6.7V52.8c0-17.5,12-28.8,30.5-28.8h57.7c2.1.2,3.6,1.9,3.5,3.9Z"/>
      <path class="st1" d="M166.2,35.6v5.3c0,5.7-4.1,10.8-9.8,11.3-6.4.6-11.8-4.5-11.8-10.8v-5.3c0-5.7,4.1-10.8,9.8-11.3,6.4-.6,11.8,4.5,11.8,10.7Z"/>
      <path class="st1" d="M165.4,71.2v92.8c0,3.7-3,6.7-6.8,6.7h-6.5c-3.7,0-6.8-3-6.8-6.7v-92.8c0-3.7,3-6.7,6.8-6.7h6.5c3.7,0,6.8,3,6.8,6.7Z"/>
      <path class="st1" d="M270.8,76.6c-6.3-9-16.1-13.3-30-13.3s-22.6,4.6-33.8,13.6c.2-3.6.2-7.4.2-11.8V30.8c0-3.7-3-6.8-6.7-6.8h-6.5c-3.7,0-6.7,3-6.7,6.8v134.7l2.6.8c13.6,4.3,30.3,6.8,44.6,6.8,31.9,0,45.6-16.4,45.6-55s-2.9-32.7-9.1-41.5ZM231.8,154.8c-8.4,0-16.5-1-24.6-3v-55.3c11.2-8.6,20-14.7,30-14.7s14.1,2.2,17.2,7.2c3.4,5.4,4.9,14.3,4.9,29,0,27.4-6.4,36.7-25.3,36.7-.8,0-1.5,0-2.3,0Z"/>
      <path class="st1" d="M381,152.4h-.5c-5.5.8-19.8,2.4-33.2,2.4-20.8,0-28-6.3-29.8-26.6h44.7c7.9,0,14.2-2.2,18.5-6.7,5.2-5.2,7.6-13.1,7.5-24.2-.2-22.6-15.2-34-44.4-34s-28.7,4-36.2,12.5c-7.6,8.6-11.1,22-11.1,42.2s3.6,33.5,11.3,42.3c7.8,8.8,19.8,13,37.6,13s29.7-1.8,38.2-5.1l2.8-1.1-1.9-11.6c-.3-1.8-1.8-3.1-3.6-3.1ZM323.5,88.3c3.9-4.6,10.4-6.6,21-6.6,19.4,0,23.4,6.4,23.5,16,.1,5.5-.8,9.2-2.7,11.2-1.3,1.4-3.3,2-6.2,2h-42c.6-11.2,2.5-18.2,6.3-22.6Z"/>
      <path class="st1" d="M470.6,69.1l-1.2,9.1c-.3,2.6-2.5,4.5-5.1,4.5h-3.5c-10.4,0-19.9,4.3-35.6,13.4v68c0,3.7-3,6.7-6.7,6.7h-6.7c-3.7,0-6.7-3-6.7-6.7v-91.4c0-3.7,3-6.7,6.7-6.7h3.9c3.5,0,6.4,2.7,6.7,6.2l.6,6.9c14.5-10.5,27.6-15.7,40.1-15.7h2.5c3.1,0,5.5,2.7,5.1,5.8Z"/>
    </g>
    <path class="st1" d="M584,40.5c-9.7-10-23.3-15.2-39.5-15.2h-48.3c-3.8,0-6.9,3.1-6.9,6.9v130c0,3.8,3.1,6.9,6.9,6.9h7.9c3.8,0,6.9-3.1,6.9-6.9v-33.9h33.6c16.1,0,29.8-5.3,39.5-15.2,9-9.3,14-22.1,14-36.3s-4.9-27-14-36.2ZM541.4,107.1h-30.5v-60.6h30.5c21.8,0,34.3,11,34.3,30.2s-12.5,30.4-34.3,30.4Z"/>
    <path class="st1" d="M697.3,116.7c-.2-.2-.1-.4,0-.5s0-.3.3-.4c15.8-8,25.3-23.9,25.3-42.6s-4.6-25-13-33.7c-9.1-9.4-21.9-14.3-36.9-14.3h-51.7c-3.8,0-6.9,3.1-6.9,6.9v130c0,3.8,3.1,6.9,6.9,6.9h7.9c3.8,0,6.9-3.1,6.9-6.9v-40.9h38.4l30.5,44.8c1.3,1.9,3.4,3,5.7,3h9.6c5.5,0,8.8-6.2,5.7-10.7l-28.3-41.6ZM670.4,99.9h-34.5v-53.4h34.5c19,0,30.3,10,30.3,26.7s-11.3,26.7-30.3,26.7Z"/>
    <path class="st0" d="M882.8,100.8c-.5,9-2.6,17.9-6.4,26.3-3.7,8.3-9,16-15.5,22.4-13,12.9-30.9,20.8-49.2,21.7-1.3,0-2.6.1-3.9.1-7.8,0-15.7-1.2-23.4-3.6-7.6-2.4-14.7-6-21.2-10.6-5.2-1.6-8.7-6.5-8.7-12s5.6-12.6,12.6-12.6,10.9,4,12.2,9.7c3.6,2.4,7.6,4.4,11.6,5.9,6.3,2.2,12.8,3.4,19.3,3.4h.7c13.7-.1,27.3-5.6,37.5-15,10.2-9.3,16.8-22.7,18.2-36.9.7-7.1,0-14.2-2-21.1-2-6.9-5.1-13.4-9.4-19.2-8.6-11.6-21.6-19.9-35.7-22.9-4.2-.9-8.4-1.3-12.7-1.3s-6.1.2-9.1.7c-7.3,1.2-14.2,3.6-20.7,7.2-6.5,3.7-12.2,8.5-16.9,14.2-4.7,5.7-8.3,12.3-10.7,19.6-2.4,7.2-3.4,14.7-3,22.3,0,2.5.4,5,.8,7.4.8,5,2.3,9.9,4.4,14.7.6,1.8,0,3.5-1.5,4.3-.5.3-1.1.5-1.8.5-1.2,0-2.5-.7-3.1-1.8-3.8-7.9-6.1-16.1-6.8-24.7-.8-8.6,0-17.2,2.5-25.5,2.4-8.5,6.3-16.2,11.5-23,5.3-6.9,11.7-12.8,19.1-17.3,7.4-4.6,15.5-7.8,24.1-9.5,4.4-.9,9-1.3,13.5-1.3s8.4.4,12.5,1.1c17.3,2.9,33.5,12.6,44.6,26.4,5.6,7,9.9,15,12.6,23.5,2.8,8.6,4,17.6,3.5,26.7Z"/>
  </g>
</svg>