<?xml version="1.0" encoding="UTF-8"?>
<svg id="Capa_1" xmlns="http://www.w3.org/2000/svg" version="1.1" viewBox="0 0 1200 1200">
  <!-- Generator: Adobe Illustrator 29.4.0, SVG Export Plug-In . SVG Version: 2.1.0 Build 152)  -->
  <defs>
    <style>
      .st0 {
        fill: #fff;
      }

      .st1 {
        fill: #002ccc;
      }
    </style>
  </defs>
  <rect class="st1" x="14.6" y="488.6" width="1178.6" height="238.6" rx="119.3" ry="119.3"/>
  <g>
    <g>
      <path class="st0" d="M495.5,669h-16.5v22.2h-30.6v-22.2h-58.7v-21.4l49.8-72.4h32.5l-45.2,67.7h22.5v-19.7h29.7v19.7h16.5v26Z"/>
      <path class="st0" d="M551.8,575.2v115.9h-31.4v-90.6h-20.6v-25.3h52.1Z"/>
      <path class="st0" d="M670.7,657.1c0,22.2-19.5,36.4-48.3,36.4s-48.3-14.2-48.3-36.4,5.9-21,15.9-27c-7.5-5.5-11.9-13.4-11.9-23.4,0-20.5,18.1-33.8,44.3-33.8s44.3,13.2,44.3,33.8-4.4,17.9-11.9,23.4c10,6,15.9,15.1,15.9,27ZM639.1,656.1c0-8.9-6.7-14.4-16.7-14.4s-16.7,5.5-16.7,14.4,6.7,14.4,16.7,14.4,16.7-5.5,16.7-14.4ZM609.3,608.2c0,7.6,5.2,12.1,13.2,12.1s13.3-4.5,13.3-12.1-5.6-12.3-13.3-12.3-13.2,4.5-13.2,12.3Z"/>
      <path class="st0" d="M689.6,631.9h46.3v24.2h-46.3v-24.2Z"/>
      <path class="st0" d="M844,575.2v20.5l-39.2,95.4h-34.3l37.5-89.9h-29.2v17.9h-26.8v-43.9h92.1Z"/>
      <path class="st0" d="M909.6,575.2v115.9h-31.4v-90.6h-20.6v-25.3h52.1Z"/>
      <path class="st0" d="M1028.5,657.1c0,22.2-19.5,36.4-48.3,36.4s-48.3-14.2-48.3-36.4,5.9-21,15.9-27c-7.5-5.5-11.9-13.4-11.9-23.4,0-20.5,18.1-33.8,44.3-33.8s44.3,13.2,44.3,33.8-4.4,17.9-11.9,23.4c10,6,15.9,15.1,15.9,27ZM996.9,656.1c0-8.9-6.7-14.4-16.7-14.4s-16.7,5.5-16.7,14.4,6.7,14.4,16.7,14.4,16.7-5.5,16.7-14.4ZM967,608.2c0,7.6,5.2,12.1,13.2,12.1s13.3-4.5,13.3-12.1-5.6-12.3-13.3-12.3-13.2,4.5-13.2,12.3Z"/>
      <path class="st0" d="M1132.4,653.9c0,20.7-14.9,39.6-48.4,39.6s-31.8-4-43-11.4l11.3-24.7c9,6.3,20.2,9.6,30.8,9.6s17.8-4.5,17.8-12.3-4.6-11.8-21.6-11.8h-30.2l5.6-67.7h70.8v25.3h-44.8l-1.4,16.9h7.5c32.9,0,45.7,15.9,45.7,36.4Z"/>
    </g>
    <g>
      <path class="st0" d="M231.6,632.7c0-15.4,4.1-29.2,11.3-39.2h8.6c-7.7,11.9-11,24.5-11,39.2s3.3,27.3,11,39.2h-8.6c-7.2-10.1-11.3-23.8-11.3-39.2Z"/>
      <path class="st0" d="M257.2,632.7c0-19.1,11.6-30,27.1-30s27,10.9,27,30-11.6,30-27,30c-15.5,0-27.1-10.9-27.1-30ZM301.8,632.7c0-15-7.2-22.5-17.5-22.5-10.4,0-17.6,7.5-17.6,22.5s7.2,22.5,17.6,22.5c10.3,0,17.5-7.5,17.5-22.5Z"/>
      <path class="st0" d="M338.8,603.4v58.6h-9.4v-51.3h-15v-7.3h24.4Z"/>
      <path class="st0" d="M349.8,671.9c7.7-11.9,11.1-24.5,11.1-39.2s-3.4-27.3-11.1-39.2h8.6c7.3,10,11.4,23.8,11.4,39.2s-4.1,29.1-11.4,39.2h-8.6Z"/>
    </g>
    <g>
      <path class="st0" d="M173.6,674.3l-9.8,9c-.6.6-1.3,1.1-1.9,1.5,0,0,0,0-.1,0-7.4,5.2-17,4-25.5-1.6,0,0-14.5-9.5-30-23.7-15.5-14.2-25.9-27.4-25.9-27.4-5.4-8.3-7.3-16.6-1.8-23.2,0,0,0-.1.1-.2.5-.6,1.1-1.2,1.7-1.8l9.8-9c2.9-2.7,7.8-2.7,10.7,0l10.5,9.6c2.9,2.7,2.9,7.1,0,9.8l-10.1,9.2c-.5.5-.6,1.2-.1,1.7,2.7,3,11.6,13,18.4,19.1,6.8,6.2,17.7,14.4,20.9,16.8.6.4,1.3.4,1.8,0l10.1-9.2c2.9-2.7,7.8-2.7,10.7,0l10.5,9.6c2.9,2.7,2.9,7.1,0,9.7Z"/>
      <g>
        <path class="st0" d="M159.4,639.5c-.7-.6-1.2-1.5-1.3-2.5-.6-6-3.6-11.6-8.2-15.9-4.7-4.3-10.8-6.9-17.3-7.5-2.4-.2-4.2-2.2-4-4.4.2-2.2,2.4-3.8,4.8-3.6,8.6.8,16.6,4.3,22.7,9.8,6.1,5.6,9.9,13,10.8,20.8.2,2.2-1.5,4.2-4,4.4-1.4.1-2.7-.3-3.6-1.2Z"/>
        <path class="st0" d="M176.8,637.8c-.7-.7-1.2-1.6-1.3-2.6-.5-9.8-5-19-12.6-25.9-7.6-6.9-17.6-11-28.3-11.5-2.4-.1-4.3-2-4.2-4.2.1-2.2,2.2-3.9,4.6-3.8,12.9.6,25,5.5,34.1,13.9,9.1,8.3,14.5,19.4,15.2,31.2.1,2.2-1.7,4.1-4.2,4.2-1.3,0-2.5-.4-3.4-1.2Z"/>
      </g>
    </g>
  </g>
  <g>
    <path class="st0" d="M403.1,512.5h5.3v32.8h20.3v4.6h-25.6v-37.4Z"/>
    <path class="st0" d="M434.8,512.5h5.3v32.8h20.3v4.6h-25.6v-37.4Z"/>
    <path class="st0" d="M490.6,540.6h-19.9l-4.1,9.4h-5.5l16.9-37.4h5.3l17,37.4h-5.6l-4.1-9.4ZM488.7,536.3l-8.1-18.3-8.1,18.3h16.1ZM481.5,509.5h-4.8l7.3-6.9h6.5l-9,6.9Z"/>
    <path class="st0" d="M540.5,549.9v-27.3c0,0-13.6,22.7-13.6,22.7h-2.5l-13.5-22.6v27.1h-5.1v-37.4h4.4l15.6,26.3,15.4-26.3h4.4v37.4c0,0-5.1,0-5.1,0Z"/>
    <path class="st0" d="M580.7,540.6h-19.9l-4.1,9.4h-5.5l16.9-37.4h5.3l17,37.4h-5.6l-4.1-9.4ZM578.8,536.3l-8.1-18.3-8.1,18.3h16.1Z"/>
    <path class="st0" d="M628.1,512.5v37.4h-4.4l-22.4-27.9v27.9h-5.3v-37.4h4.4l22.4,27.9v-27.9h5.3Z"/>
    <path class="st0" d="M636.3,531.2c0-11,8.4-19.1,19.9-19.1s19.8,8.1,19.8,19.1-8.4,19.1-19.8,19.1-19.9-8.2-19.9-19.1ZM670.7,531.2c0-8.3-6.2-14.4-14.5-14.4s-14.6,6.1-14.6,14.4,6.2,14.4,14.6,14.4,14.5-6.1,14.5-14.4Z"/>
    <path class="st0" d="M680.8,545.7l2-4.2c2.8,2.5,7.5,4.3,12.3,4.3s9.2-2.5,9.2-5.8c0-9.1-22.7-3.4-22.7-17.3s4.5-10.7,14.3-10.7,8.9,1.2,12,3.3l-1.8,4.3c-3.3-2.1-6.9-3-10.3-3-6.4,0-9.1,2.7-9.1,5.9,0,9.1,22.7,3.4,22.7,17.2s-4.6,10.6-14.5,10.6-11.3-1.9-14.3-4.7Z"/>
    <path class="st0" d="M755.6,540.6h-19.9l-4.1,9.4h-5.5l16.9-37.4h5.3l17,37.4h-5.6l-4.1-9.4ZM753.8,536.3l-8.1-18.3-8.1,18.3h16.1Z"/>
    <path class="st0" d="M770.9,512.5h5.3v32.8h20.3v4.6h-25.6v-37.4Z"/>
    <path class="st0" d="M800.6,525c0-2.1,1.7-3.6,3.6-3.6s3.5,1.5,3.5,3.6-1.6,3.7-3.5,3.7-3.6-1.5-3.6-3.7ZM800.6,546.6c0-2.1,1.7-3.6,3.6-3.6s3.5,1.5,3.5,3.6-1.6,3.7-3.5,3.7-3.6-1.5-3.6-3.7Z"/>
  </g>
</svg>